<svg xmlns="http://www.w3.org/2000/svg" viewBox="0 0 12.8 12.8"><path d="M12.44,12c.05.11.11.27,0,.37a.39.39,0,0,1-.32.16H.86a.36.36,0,0,1-.32-.16.47.47,0,0,1,0-.37L6.27.7c.17-.27.38-.27.49,0Z" transform="translate(-0.1 -0.1)" style="fill:none;stroke:orange;stroke-linecap:round;stroke-linejoin:round;stroke-width:0.7988536930124491px"/><path d="M6.49,8.51V4.6" transform="translate(-0.1 -0.1)" style="fill:none;stroke:orange;stroke-linecap:round;stroke-linejoin:round;stroke-width:0.7988536930124491px"/><path d="M6.49,10s0,0-.11,0,0,.06,0,.11a.17.17,0,0,0,.16.16h0s0,0,.11-.06.05-.05.05-.1A.14.14,0,0,0,6.49,10h0" transform="translate(-0.1 -0.1)" style="fill:orange;stroke:orange;stroke-linecap:round;stroke-linejoin:round;stroke-width:0.7988536930124491px"/></svg>